<svg version="1.1" id="Layer_1" xmlns="http://www.w3.org/2000/svg" xmlns:xlink="http://www.w3.org/1999/xlink" x="0px" y="0px"
	 width="100%" viewBox="0 0 1550 1550" enable-background="new 0 0 1550 1550" xml:space="preserve">
<path fill="#FFFFFF" opacity="1.000000" stroke="none" 
	d="
M1.000000,548.000000 
	C1.000000,365.333374 1.000000,183.166733 1.000000,1.000073 
	C517.666565,1.000049 1034.333130,1.000049 1550.999756,1.000024 
	C1550.999756,517.666443 1550.999756,1034.332886 1550.999878,1550.999512 
	C1034.333618,1550.999756 517.667297,1550.999756 1.000465,1550.999878 
	C1.000000,1216.833374 1.000000,882.666687 1.000000,548.000000 
M731.875977,351.742188 
	C733.537720,351.818146 735.209778,351.800903 736.859680,351.983948 
	C765.149109,355.122406 793.336304,354.107849 821.604553,351.038452 
	C844.084839,348.597534 866.698059,346.433563 889.279480,346.122314 
	C914.809509,345.770355 939.503296,351.645966 962.858765,362.236511 
	C975.307861,367.881622 983.068237,377.806152 986.441101,390.924988 
	C988.133301,397.506744 989.332031,404.279358 990.034729,411.040375 
	C993.085510,440.394440 989.583618,469.231995 982.239929,497.648651 
	C971.943420,537.491394 957.830017,576.053101 942.572205,614.217773 
	C941.883606,615.940247 941.432556,617.757812 940.664734,620.182007 
	C957.459656,615.810974 972.754150,610.349609 986.329773,600.997437 
	C995.263916,594.842773 1003.465271,588.186646 1007.140076,577.005859 
	C1017.071228,546.789673 1026.380005,516.413025 1032.688965,485.216888 
	C1042.240112,437.989655 1047.441895,390.446289 1040.872437,342.304901 
	C1036.162109,307.786713 1024.023804,276.083801 1004.099304,247.375580 
	C985.984863,221.275360 962.684204,200.621246 936.896667,182.529007 
	C889.669800,149.395233 837.462769,131.285233 779.505981,131.388931 
	C740.426575,131.458862 702.837341,139.835861 666.539246,153.989136 
	C621.736145,171.458603 583.408203,198.022827 554.314453,236.700912 
	C514.994141,288.974426 501.664948,348.152710 509.422791,412.504730 
	C516.376953,470.190002 529.375366,526.528381 547.983643,581.573486 
	C562.876892,625.629517 580.070068,668.639282 605.669434,707.791382 
	C628.385376,742.533569 655.296997,773.412476 690.170288,796.476135 
	C724.823608,819.394226 762.701050,828.496643 803.876099,819.957214 
	C844.920105,811.444946 876.832153,788.037598 903.935059,757.146240 
	C904.214722,756.827454 904.235413,756.281433 904.499939,755.459473 
	C903.300415,755.521667 902.363159,755.539673 901.431824,755.623230 
	C884.682739,757.126465 867.953247,758.913025 851.179993,760.061218 
	C837.342285,761.008545 824.239868,763.458557 811.199158,769.005188 
	C781.709717,781.548035 752.564453,778.350037 724.785034,762.868103 
	C702.231445,750.298706 683.673218,732.942139 667.270935,713.206482 
	C640.278870,680.728638 621.532654,643.506409 605.545776,604.772461 
	C586.098511,557.654358 573.299316,508.619965 563.894165,458.615784 
	C560.836243,442.357513 558.184753,426.115082 560.436523,409.525543 
	C564.499390,379.593475 579.304565,355.177216 599.755981,333.757172 
	C605.267273,327.984894 608.969482,328.167267 614.220520,334.438995 
	C640.308167,365.597290 674.343994,382.474640 713.568970,390.262421 
	C746.160217,396.733154 778.809875,395.850525 811.517578,391.490906 
	C812.826782,391.316406 814.105164,390.910736 815.397949,390.612732 
	C809.063904,387.239532 802.690247,385.090240 796.316711,382.940460 
	C777.431702,376.570709 758.116943,371.199554 741.290283,359.949493 
	C737.693909,357.545044 734.459961,354.598694 731.028381,351.959869 
	C731.028381,351.959869 730.987305,352.010895 731.875977,351.742188 
M569.856140,911.651794 
	C568.240906,905.384338 566.296631,899.179199 565.093994,892.833557 
	C563.597839,884.939270 561.214050,883.472839 553.413696,886.034302 
	C533.717896,892.501831 514.022827,898.980591 494.228119,905.135437 
	C460.951569,915.482361 427.260773,924.617432 395.325104,938.859070 
	C345.974304,960.867004 311.186127,996.695435 294.418152,1048.412964 
	C276.339172,1104.174072 264.910645,1161.522827 257.218384,1219.570068 
	C252.826736,1252.710205 249.170105,1285.964722 246.010376,1319.246338 
	C242.769501,1353.382935 240.272171,1387.597778 237.971771,1421.813354 
	C236.744019,1440.074829 235.743439,1458.433838 236.232147,1476.706177 
	C236.765945,1496.664307 253.937180,1511.885864 273.780914,1511.896484 
	C318.946472,1511.920776 364.112030,1511.964722 409.277588,1511.966187 
	C699.272156,1511.975220 989.266663,1511.967529 1279.261230,1512.016724 
	C1287.152222,1512.018066 1293.840820,1509.342163 1299.856323,1504.469604 
	C1312.439087,1494.277344 1316.991089,1480.627197 1316.173096,1465.050293 
	C1314.924438,1441.271484 1313.492920,1417.494751 1311.623413,1393.757690 
	C1308.996704,1360.408691 1306.427612,1327.039795 1302.847534,1293.785522 
	C1299.448486,1262.211426 1295.618896,1230.635376 1290.449219,1199.312622 
	C1284.499023,1163.261719 1277.078857,1127.446289 1269.903687,1091.607178 
	C1264.395142,1064.092407 1255.346924,1037.785278 1240.799072,1013.603577 
	C1214.979370,970.686035 1176.876831,943.486877 1129.956665,928.027100 
	C1100.334961,918.266968 1070.425049,909.383850 1040.682373,899.986938 
	C1026.929565,895.641968 1013.320374,890.837891 999.539551,886.587036 
	C993.576111,884.747559 989.559326,887.026428 987.091858,892.722046 
	C986.237305,894.694580 985.614197,896.785522 985.065552,898.869812 
	C976.320374,932.094849 967.841064,965.391846 958.836243,998.546204 
	C934.894958,1086.693970 907.507385,1173.707275 872.070801,1258.011353 
	C867.511108,1268.859131 862.199402,1279.390625 857.236084,1290.068481 
	C856.704773,1289.942749 856.173462,1289.816895 855.642212,1289.691040 
	C855.070862,1288.011475 854.310364,1286.370239 853.962097,1284.645630 
	C852.712219,1278.457275 851.587585,1272.243408 850.440796,1266.034546 
	C844.283997,1232.701050 838.153442,1199.362671 831.977722,1166.032593 
	C825.500610,1131.075928 819.147034,1096.095215 812.425903,1061.185303 
	C807.788574,1037.098389 806.345398,1013.403503 816.917480,990.277161 
	C819.809570,983.950684 817.815247,978.815125 811.955078,974.656189 
	C804.644104,969.467407 797.293640,964.331604 789.882446,959.287170 
	C778.614014,951.617310 772.498169,951.701294 761.263245,959.517700 
	C754.304810,964.358765 747.399414,969.276611 740.413940,974.078186 
	C734.963318,977.824768 732.954468,983.005005 734.417908,989.271729 
	C736.228760,997.025391 738.405945,1004.697510 740.571655,1012.363342 
	C743.047913,1021.128052 744.264709,1030.051025 742.633667,1039.022217 
	C733.183105,1091.003052 723.604614,1142.960938 713.969604,1194.908081 
	C709.788452,1217.450195 705.628967,1240.002686 700.919800,1262.437134 
	C699.231323,1270.480835 695.955688,1278.191284 692.990479,1287.329712 
	C689.474854,1279.860107 686.581970,1274.069336 683.988037,1268.147827 
	C653.229980,1197.931519 628.930969,1125.419922 607.961365,1051.783447 
	C594.779053,1005.492737 582.613403,958.912415 569.856140,911.651794 
M1132.062744,326.322052 
	C1125.028442,291.806427 1113.007446,259.064819 1096.193115,228.171707 
	C1073.914551,187.239014 1044.788086,151.846725 1009.097961,121.787460 
	C987.724487,103.786156 964.620544,88.484550 939.828674,75.725464 
	C920.941833,66.005424 901.289917,58.027901 880.842102,52.234455 
	C854.940552,44.895809 828.648254,39.710487 801.559082,40.021515 
	C783.927551,40.223949 766.274475,41.404984 748.674194,40.829269 
	C719.688477,39.881130 691.969788,45.897339 664.702209,54.524857 
	C633.261169,64.472855 603.848022,78.730316 576.208191,96.880646 
	C554.799744,110.938972 535.011902,126.903839 517.108704,145.054306 
	C505.604889,156.716980 494.716309,169.168610 484.895447,182.273422 
	C460.273163,215.128845 441.350342,251.070480 429.031921,290.394257 
	C419.519104,320.761841 413.750092,351.777710 413.190948,383.579224 
	C413.006561,394.064850 408.918915,400.608063 399.898041,405.296875 
	C388.645721,411.145569 378.772797,418.808899 370.798767,428.920044 
	C349.737427,455.625916 344.523804,485.381989 354.244507,517.554565 
	C363.989075,549.806091 384.806549,571.802917 417.684937,581.065613 
	C439.867828,587.315063 462.274780,586.520813 484.561096,581.099426 
	C490.762329,579.590881 492.186920,577.282349 490.779297,571.132080 
	C486.616486,552.943970 482.829529,534.653015 478.050781,516.626343 
	C469.468262,484.250702 462.301544,451.597931 460.203613,418.145630 
	C458.779175,395.432404 459.464172,372.591217 463.115875,350.035278 
	C468.096039,319.273926 477.439331,289.806946 491.393677,261.933441 
	C504.048370,236.655991 519.825928,213.463364 538.672485,192.292221 
	C553.314880,175.843750 569.390808,161.044312 586.971558,147.888107 
	C610.323975,130.412888 635.657532,116.457268 662.826294,105.754890 
	C692.826294,93.937218 723.946533,86.969299 756.029297,85.175186 
	C783.593994,83.633728 811.068542,85.442062 838.291382,90.819061 
	C874.143738,97.900566 907.737854,110.623947 938.694214,130.008820 
	C970.140991,149.700806 997.547363,174.061768 1021.444275,202.476364 
	C1040.032837,224.579010 1055.135864,248.742020 1066.851562,275.125153 
	C1083.873657,313.458160 1091.141724,353.813202 1091.870605,395.462250 
	C1092.070190,406.871368 1091.344238,418.383606 1089.946289,429.713196 
	C1087.923706,446.105652 1085.459106,462.487701 1082.180054,478.670990 
	C1076.859253,504.931396 1070.807129,531.045532 1064.911011,557.186951 
	C1059.202026,582.499084 1048.032715,605.039368 1029.259521,623.202515 
	C1011.192139,640.682739 989.320007,652.015076 965.698669,660.017700 
	C931.419189,671.631042 895.944458,676.797424 859.960022,679.084961 
	C852.529480,679.557373 845.121765,680.379517 837.696289,680.944580 
	C827.218872,681.741699 817.572815,680.670837 810.844482,670.881104 
	C808.472656,667.430054 804.935425,664.663452 801.586365,662.020081 
	C784.057068,648.184875 750.899231,651.978271 737.533997,672.594666 
	C727.297668,688.384705 725.856079,710.140442 736.357422,725.520386 
	C747.636047,742.038757 763.705505,748.326904 783.051575,745.707825 
	C793.758545,744.258301 803.410767,739.456238 809.849487,730.306580 
	C815.799988,721.850647 822.788757,716.125732 833.750000,715.907959 
	C845.849792,715.667542 857.983215,715.146545 870.014648,713.902954 
	C888.763672,711.965027 907.556396,709.998718 926.119812,706.815125 
	C958.756958,701.218018 990.277344,691.786804 1019.386230,675.529907 
	C1041.100220,663.402893 1059.995483,647.839600 1073.680542,626.897888 
	C1080.622437,616.274963 1086.038696,604.646240 1092.001465,593.396240 
	C1094.834839,588.050232 1099.100952,585.353821 1105.080688,584.891296 
	C1111.513672,584.393677 1117.996338,584.030884 1124.335571,582.916199 
	C1150.796387,578.263611 1171.832275,564.817322 1186.472900,542.311279 
	C1199.555298,522.200745 1204.744751,499.969116 1202.071899,475.918152 
	C1199.396484,451.843811 1189.443604,432.196045 1168.524170,419.042755 
	C1148.017700,406.149109 1138.744995,387.124512 1136.875610,363.534698 
	C1135.910767,351.357697 1133.877441,339.265381 1132.062744,326.322052 
z"/>
<path fill="#FF0000" opacity="1.000000" stroke="none" 
	d="
M569.923950,912.056885 
	C582.613403,958.912415 594.779053,1005.492737 607.961365,1051.783447 
	C628.930969,1125.419922 653.229980,1197.931519 683.988037,1268.147827 
	C686.581970,1274.069336 689.474854,1279.860107 692.990479,1287.329712 
	C695.955688,1278.191284 699.231323,1270.480835 700.919800,1262.437134 
	C705.628967,1240.002686 709.788452,1217.450195 713.969604,1194.908081 
	C723.604614,1142.960938 733.183105,1091.003052 742.633667,1039.022217 
	C744.264709,1030.051025 743.047913,1021.128052 740.571655,1012.363342 
	C738.405945,1004.697510 736.228760,997.025391 734.417908,989.271729 
	C732.954468,983.005005 734.963318,977.824768 740.413940,974.078186 
	C747.399414,969.276611 754.304810,964.358765 761.263245,959.517700 
	C772.498169,951.701294 778.614014,951.617310 789.882446,959.287170 
	C797.293640,964.331604 804.644104,969.467407 811.955078,974.656189 
	C817.815247,978.815125 819.809570,983.950684 816.917480,990.277161 
	C806.345398,1013.403503 807.788574,1037.098389 812.425903,1061.185303 
	C819.147034,1096.095215 825.500610,1131.075928 831.977722,1166.032593 
	C838.153442,1199.362671 844.283997,1232.701050 850.440796,1266.034546 
	C851.587585,1272.243408 852.712219,1278.457275 853.962097,1284.645630 
	C854.310364,1286.370239 855.070862,1288.011475 855.642212,1289.691040 
	C856.173462,1289.816895 856.704773,1289.942749 857.236084,1290.068481 
	C862.199402,1279.390625 867.511108,1268.859131 872.070801,1258.011353 
	C907.507385,1173.707275 934.894958,1086.693970 958.836243,998.546204 
	C967.841064,965.391846 976.320374,932.094849 985.065552,898.869812 
	C985.614197,896.785522 986.237305,894.694580 987.091858,892.722046 
	C989.559326,887.026428 993.576111,884.747559 999.539551,886.587036 
	C1013.320374,890.837891 1026.929565,895.641968 1040.682373,899.986938 
	C1070.425049,909.383850 1100.334961,918.266968 1129.956665,928.027100 
	C1176.876831,943.486877 1214.979370,970.686035 1240.799072,1013.603577 
	C1255.346924,1037.785278 1264.395142,1064.092407 1269.903687,1091.607178 
	C1277.078857,1127.446289 1284.499023,1163.261719 1290.449219,1199.312622 
	C1295.618896,1230.635376 1299.448486,1262.211426 1302.847534,1293.785522 
	C1306.427612,1327.039795 1308.996704,1360.408691 1311.623413,1393.757690 
	C1313.492920,1417.494751 1314.924438,1441.271484 1316.173096,1465.050293 
	C1316.991089,1480.627197 1312.439087,1494.277344 1299.856323,1504.469604 
	C1293.840820,1509.342163 1287.152222,1512.018066 1279.261230,1512.016724 
	C989.266663,1511.967529 699.272156,1511.975220 409.277588,1511.966187 
	C364.112030,1511.964722 318.946472,1511.920776 273.780914,1511.896484 
	C253.937180,1511.885864 236.765945,1496.664307 236.232147,1476.706177 
	C235.743439,1458.433838 236.744019,1440.074829 237.971771,1421.813354 
	C240.272171,1387.597778 242.769501,1353.382935 246.010376,1319.246338 
	C249.170105,1285.964722 252.826736,1252.710205 257.218384,1219.570068 
	C264.910645,1161.522827 276.339172,1104.174072 294.418152,1048.412964 
	C311.186127,996.695435 345.974304,960.867004 395.325104,938.859070 
	C427.260773,924.617432 460.951569,915.482361 494.228119,905.135437 
	C514.022827,898.980591 533.717896,892.501831 553.413696,886.034302 
	C561.214050,883.472839 563.597839,884.939270 565.093994,892.833557 
	C566.296631,899.179199 568.240906,905.384338 569.923950,912.056885 
z"/>
<path fill="#FF0101" opacity="1.000000" stroke="none" 
	d="
M731.059021,351.902008 
	C734.459961,354.598694 737.693909,357.545044 741.290283,359.949493 
	C758.116943,371.199554 777.431702,376.570709 796.316711,382.940460 
	C802.690247,385.090240 809.063904,387.239532 815.397949,390.612732 
	C814.105164,390.910736 812.826782,391.316406 811.517578,391.490906 
	C778.809875,395.850525 746.160217,396.733154 713.568970,390.262421 
	C674.343994,382.474640 640.308167,365.597290 614.220520,334.438995 
	C608.969482,328.167267 605.267273,327.984894 599.755981,333.757172 
	C579.304565,355.177216 564.499390,379.593475 560.436523,409.525543 
	C558.184753,426.115082 560.836243,442.357513 563.894165,458.615784 
	C573.299316,508.619965 586.098511,557.654358 605.545776,604.772461 
	C621.532654,643.506409 640.278870,680.728638 667.270935,713.206482 
	C683.673218,732.942139 702.231445,750.298706 724.785034,762.868103 
	C752.564453,778.350037 781.709717,781.548035 811.199158,769.005188 
	C824.239868,763.458557 837.342285,761.008545 851.179993,760.061218 
	C867.953247,758.913025 884.682739,757.126465 901.431824,755.623230 
	C902.363159,755.539673 903.300415,755.521667 904.499939,755.459473 
	C904.235413,756.281433 904.214722,756.827454 903.935059,757.146240 
	C876.832153,788.037598 844.920105,811.444946 803.876099,819.957214 
	C762.701050,828.496643 724.823608,819.394226 690.170288,796.476135 
	C655.296997,773.412476 628.385376,742.533569 605.669434,707.791382 
	C580.070068,668.639282 562.876892,625.629517 547.983643,581.573486 
	C529.375366,526.528381 516.376953,470.190002 509.422791,412.504730 
	C501.664948,348.152710 514.994141,288.974426 554.314453,236.700912 
	C583.408203,198.022827 621.736145,171.458603 666.539246,153.989136 
	C702.837341,139.835861 740.426575,131.458862 779.505981,131.388931 
	C837.462769,131.285233 889.669800,149.395233 936.896667,182.529007 
	C962.684204,200.621246 985.984863,221.275360 1004.099304,247.375580 
	C1024.023804,276.083801 1036.162109,307.786713 1040.872437,342.304901 
	C1047.441895,390.446289 1042.240112,437.989655 1032.688965,485.216888 
	C1026.380005,516.413025 1017.071228,546.789673 1007.140076,577.005859 
	C1003.465271,588.186646 995.263916,594.842773 986.329773,600.997437 
	C972.754150,610.349609 957.459656,615.810974 940.664734,620.182007 
	C941.432556,617.757812 941.883606,615.940247 942.572205,614.217773 
	C957.830017,576.053101 971.943420,537.491394 982.239929,497.648651 
	C989.583618,469.231995 993.085510,440.394440 990.034729,411.040375 
	C989.332031,404.279358 988.133301,397.506744 986.441101,390.924988 
	C983.068237,377.806152 975.307861,367.881622 962.858765,362.236511 
	C939.503296,351.645966 914.809509,345.770355 889.279480,346.122314 
	C866.698059,346.433563 844.084839,348.597534 821.604553,351.038452 
	C793.336304,354.107849 765.149109,355.122406 736.859680,351.983948 
	C735.209778,351.800903 733.537720,351.818146 731.406799,351.620758 
	C730.574219,351.532684 730.210815,351.566071 729.847412,351.599426 
	C729.892761,351.704254 729.932434,351.896515 729.984314,351.899841 
	C730.341125,351.922638 730.700500,351.905975 731.059021,351.902008 
z"/>
<path fill="#FE349A" opacity="1.000000" stroke="none" 
	d="
M1132.194824,326.728424 
	C1133.877441,339.265381 1135.910767,351.357697 1136.875610,363.534698 
	C1138.744995,387.124512 1148.017700,406.149109 1168.524170,419.042755 
	C1189.443604,432.196045 1199.396484,451.843811 1202.071899,475.918152 
	C1204.744751,499.969116 1199.555298,522.200745 1186.472900,542.311279 
	C1171.832275,564.817322 1150.796387,578.263611 1124.335571,582.916199 
	C1117.996338,584.030884 1111.513672,584.393677 1105.080688,584.891296 
	C1099.100952,585.353821 1094.834839,588.050232 1092.001465,593.396240 
	C1086.038696,604.646240 1080.622437,616.274963 1073.680542,626.897888 
	C1059.995483,647.839600 1041.100220,663.402893 1019.386230,675.529907 
	C990.277344,691.786804 958.756958,701.218018 926.119812,706.815125 
	C907.556396,709.998718 888.763672,711.965027 870.014648,713.902954 
	C857.983215,715.146545 845.849792,715.667542 833.750000,715.907959 
	C822.788757,716.125732 815.799988,721.850647 809.849487,730.306580 
	C803.410767,739.456238 793.758545,744.258301 783.051575,745.707825 
	C763.705505,748.326904 747.636047,742.038757 736.357422,725.520386 
	C725.856079,710.140442 727.297668,688.384705 737.533997,672.594666 
	C750.899231,651.978271 784.057068,648.184875 801.586365,662.020081 
	C804.935425,664.663452 808.472656,667.430054 810.844482,670.881104 
	C817.572815,680.670837 827.218872,681.741699 837.696289,680.944580 
	C845.121765,680.379517 852.529480,679.557373 859.960022,679.084961 
	C895.944458,676.797424 931.419189,671.631042 965.698669,660.017700 
	C989.320007,652.015076 1011.192139,640.682739 1029.259521,623.202515 
	C1048.032715,605.039368 1059.202026,582.499084 1064.911011,557.186951 
	C1070.807129,531.045532 1076.859253,504.931396 1082.180054,478.670990 
	C1085.459106,462.487701 1087.923706,446.105652 1089.946289,429.713196 
	C1091.344238,418.383606 1092.070190,406.871368 1091.870605,395.462250 
	C1091.141724,353.813202 1083.873657,313.458160 1066.851562,275.125153 
	C1055.135864,248.742020 1040.032837,224.579010 1021.444275,202.476364 
	C997.547363,174.061768 970.140991,149.700806 938.694214,130.008820 
	C907.737854,110.623947 874.143738,97.900566 838.291382,90.819061 
	C811.068542,85.442062 783.593994,83.633728 756.029297,85.175186 
	C723.946533,86.969299 692.826294,93.937218 662.826294,105.754890 
	C635.657532,116.457268 610.323975,130.412888 586.971558,147.888107 
	C569.390808,161.044312 553.314880,175.843750 538.672485,192.292221 
	C519.825928,213.463364 504.048370,236.655991 491.393677,261.933441 
	C477.439331,289.806946 468.096039,319.273926 463.115875,350.035278 
	C459.464172,372.591217 458.779175,395.432404 460.203613,418.145630 
	C462.301544,451.597931 469.468262,484.250702 478.050781,516.626343 
	C482.829529,534.653015 486.616486,552.943970 490.779297,571.132080 
	C492.186920,577.282349 490.762329,579.590881 484.561096,581.099426 
	C462.274780,586.520813 439.867828,587.315063 417.684937,581.065613 
	C384.806549,571.802917 363.989075,549.806091 354.244507,517.554565 
	C344.523804,485.381989 349.737427,455.625916 370.798767,428.920044 
	C378.772797,418.808899 388.645721,411.145569 399.898041,405.296875 
	C408.918915,400.608063 413.006561,394.064850 413.190948,383.579224 
	C413.750092,351.777710 419.519104,320.761841 429.031921,290.394257 
	C441.350342,251.070480 460.273163,215.128845 484.895447,182.273422 
	C494.716309,169.168610 505.604889,156.716980 517.108704,145.054306 
	C535.011902,126.903839 554.799744,110.938972 576.208191,96.880646 
	C603.848022,78.730316 633.261169,64.472855 664.702209,54.524857 
	C691.969788,45.897339 719.688477,39.881130 748.674194,40.829269 
	C766.274475,41.404984 783.927551,40.223949 801.559082,40.021515 
	C828.648254,39.710487 854.940552,44.895809 880.842102,52.234455 
	C901.289917,58.027901 920.941833,66.005424 939.828674,75.725464 
	C964.620544,88.484550 987.724487,103.786156 1009.097961,121.787460 
	C1044.788086,151.846725 1073.914551,187.239014 1096.193115,228.171707 
	C1113.007446,259.064819 1125.028442,291.806427 1132.194824,326.728424 
z"/>
<path fill="#FFFFFF" opacity="1.000000" stroke="none" 
	d="
M731.043701,351.930939 
	C730.700500,351.905975 730.341125,351.922638 729.984314,351.899841 
	C729.932434,351.896515 729.892761,351.704254 729.847412,351.599426 
	C730.210815,351.566071 730.574219,351.532684 730.962463,351.755127 
	C730.987305,352.010895 731.028381,351.959869 731.043701,351.930939 
z"/>
</svg>